# xmcd
#
# Track frame offsets:
#	150
#	10020
#	23460
#	38100
#	52482
#	66050
#	79045
#	92987
#	103097
#	119285
#	132715
#	147440
#
# Disc length: 2152 seconds
#
# Revision: 1
# Processed by: cddbd v1.5.2PL0 Copyright (c) Steve Scherf et al.
# Submitted via: EZCDAudioConverter 3.1.7.1
#
DISCID=a608660c
DTITLE=Ricky Van Shelton - Making Plans
DYEAR=1997
DGENRE=Country
TTITLE0=Just Say Goodbye
TTITLE1=When the Feeling Goes Away
TTITLE2=She Needs Me
TTITLE3=Borrowed Angel
TTITLE4=I Wish You Were More Like Your Memory
TTITLE5=Tic Toc
TTITLE6=It Wouldn't Kill Me
TTITLE7=Making Plans
TTITLE8=He's Not the Man I Used to Be
TTITLE9=Our Love
TTITLE10=The Best Thing Goin'
TTITLE11=The Best Is Yet to Come
EXTD=
EXTT0=
EXTT1=
EXTT2=
EXTT3=
EXTT4=
EXTT5=
EXTT6=
EXTT7=
EXTT8=
EXTT9=
EXTT10=
EXTT11=
PLAYORDER=
